<?xml version="1.0" encoding="UTF-8"?>
<svg version="1.1" xmlns="http://www.w3.org/2000/svg" width="1024" height="1024">
<path d="M0 0 C337.92 0 675.84 0 1024 0 C1024 337.92 1024 675.84 1024 1024 C686.08 1024 348.16 1024 0 1024 C0 686.08 0 348.16 0 0 Z " fill="#CECECD" transform="translate(0,0)"/>
<path d="M0 0 C1.30018066 0.20447754 2.60036133 0.40895508 3.93994141 0.61962891 C12.44314296 2.0823432 20.62203629 4.25516445 28.875 6.75 C30.1917663 7.1192613 31.50927059 7.48592369 32.828125 7.84765625 C52.9899075 13.74808312 72.13249827 22.54724509 89.875 33.75 C90.97714844 34.43707031 92.07929687 35.12414062 93.21484375 35.83203125 C104.87561115 43.35560128 115.85719538 52.15444859 125.875 61.75 C126.89835449 62.72453125 126.89835449 62.72453125 127.94238281 63.71875 C139.02233836 74.33606717 149.06151683 85.17814105 157.875 97.75 C158.32665527 98.3888916 158.77831055 99.0277832 159.24365234 99.68603516 C195.67210122 151.59490377 210.96096788 216.75948381 200.09765625 279.4375 C199.18866875 284.25056343 198.06402006 288.99929589 196.875 293.75 C196.52526123 295.17070801 196.52526123 295.17070801 196.16845703 296.62011719 C186.95481529 333.41535615 170.20676939 367.39880919 144.875 395.75 C144.18664062 396.54792969 143.49828125 397.34585937 142.7890625 398.16796875 C125.74626189 417.65944761 106.86788639 433.20409443 84.875 446.75 C83.76253906 447.44609375 82.65007812 448.1421875 81.50390625 448.859375 C46.3098718 469.98424562 4.21108055 480.25010676 -36.625 480.0625 C-37.45371613 480.06067719 -38.28243225 480.05885437 -39.13626099 480.05697632 C-52.9775984 480.00595646 -66.48306634 479.24162188 -80.125 476.75 C-81.07826172 476.57839355 -82.03152344 476.40678711 -83.01367188 476.22998047 C-103.66966199 472.39043679 -123.2349237 465.92495461 -142.125 456.75 C-142.95499512 456.34797363 -143.78499023 455.94594727 -144.64013672 455.53173828 C-164.98325139 445.55648419 -183.37378588 433.08510268 -199.92944336 417.60498047 C-202.15637046 415.52479622 -204.39643786 413.53476293 -206.78515625 411.640625 C-208.87954905 409.94832764 -210.52776318 408.30586385 -212.25 406.25 C-214.30162665 403.8358014 -216.37471382 401.48828071 -218.5625 399.1953125 C-230.69195374 386.46643808 -240.46727555 372.06997014 -249.01367188 356.73779297 C-250.05915711 354.86777084 -251.12872023 353.01365855 -252.203125 351.16015625 C-265.10046781 328.46636797 -272.94040762 302.42366427 -277.125 276.75 C-277.30377686 275.68015869 -277.48255371 274.61031738 -277.66674805 273.50805664 C-279.27091618 262.92054693 -279.48016718 252.50204289 -279.4375 241.8125 C-279.43634186 240.91258331 -279.43518372 240.01266663 -279.43399048 239.08547974 C-279.39974595 225.60405102 -278.81780946 212.40191595 -276.52636719 199.08837891 C-276.15961886 196.95169067 -275.84168819 194.81448745 -275.5390625 192.66796875 C-268.78142442 150.05974423 -246.64102592 108.62212212 -217.41015625 77.22265625 C-215.49596117 75.15139901 -213.67912389 73.04085299 -211.875 70.875 C-183.99114694 39.03553057 -143.47607893 17.01885174 -103.125 5.75 C-102.48143555 5.56985352 -101.83787109 5.38970703 -101.17480469 5.20410156 C-93.45780864 3.08202359 -85.70354834 1.3984188 -77.8125 0.0625 C-76.75603271 -0.11659912 -76.75603271 -0.11659912 -75.67822266 -0.29931641 C-51.03597389 -4.25099752 -24.61106172 -3.87925922 0 0 Z " fill="#FDFDFC" transform="translate(550.125,273.25)"/>
<path d="M0 0 C0 5.28 0 10.56 0 16 C1.216875 15.505 2.43375 15.01 3.6875 14.5 C9.6987287 12.47073171 15.71860415 12.53137362 22 13 C22.99 13.495 22.99 13.495 24 14 C22.95211676 17.23891184 21.6420687 19.57636566 19.4375 22.125 C16.85782237 24.80604196 16.85782237 24.80604196 16 28 C17.85296835 28.48377991 19.70744441 28.96178636 21.5625 29.4375 C23.11130859 29.83775391 23.11130859 29.83775391 24.69140625 30.24609375 C28.11530243 31.02627316 31.51893525 31.54785666 35 32 C35.94359375 30.60587891 35.94359375 30.60587891 36.90625 29.18359375 C48.54898473 12.24330036 48.54898473 12.24330036 55.09765625 10.4140625 C58.91854097 10.11410519 60.85597318 10.89041438 63.875 13.1875 C68.44695437 19.23861607 68.34596337 24.68443748 68.3125 32 C68.31628662 33.03294189 68.32007324 34.06588379 68.32397461 35.13012695 C68.27390234 40.87310036 67.79361534 45.72117042 66.0625 51.1875 C65.00709232 54.91074377 64.75626673 56.39535401 66.21875 60.0234375 C67.45013863 62.05314164 68.73643743 64.05050536 70.07421875 66.01171875 C75.5220298 74.46521865 77.08780485 84.41968447 77.17578125 94.3046875 C77.19897774 95.70704629 77.22309501 97.1093901 77.24804688 98.51171875 C77.28308091 100.69264852 77.31248782 102.87302268 77.32592773 105.05419922 C77.39629911 114.63553335 77.45391891 122.12274744 84.359375 129.53125 C85.14828125 130.1809375 85.9371875 130.830625 86.75 131.5 C87.54921875 132.1703125 88.3484375 132.840625 89.171875 133.53125 C89.77515625 134.0159375 90.3784375 134.500625 91 135 C89.43632141 139.3652694 87.88951888 141.37457475 84 144 C83.34 144 82.68 144 82 144 C82.103125 145.2375 82.20625 146.475 82.3125 147.75 C82.2952162 158.72521088 75.74182278 167.74554772 68.6875 175.5625 C58.69767035 184.62304317 47.53248764 191.90013123 34 194 C35.98 198.455 35.98 198.455 38 203 C51.92084824 203.58751528 63.21104071 202.86215442 74 193 C79.09940054 188.08185778 82.14399004 182.43637026 85 176 C85.35320312 175.23558594 85.70640625 174.47117187 86.0703125 173.68359375 C87.26354429 170.239265 87.70454451 166.78894251 88.125 163.1875 C88.25455078 162.14819336 88.25455078 162.14819336 88.38671875 161.08789062 C88.59716081 159.39266294 88.79941672 157.69642245 89 156 C108.53018622 155.67136706 127.3423504 170.76992326 140.62890625 183.5234375 C149.66453527 192.93152756 158.80472897 205.748271 159.0625 219.28125 C159.041875 220.1784375 159.02125 221.075625 159 222 C158.16855469 221.65066406 157.33710937 221.30132813 156.48046875 220.94140625 C155.39378906 220.48636719 154.30710937 220.03132812 153.1875 219.5625 C152.10855469 219.11003906 151.02960938 218.65757812 149.91796875 218.19140625 C141.7351718 214.85037135 131.9446905 214.47352443 123.45703125 217.09375 C115.70768696 220.78672016 108.69475126 226.0562848 105 234 C103.90240772 237.30809209 102.9203094 240.63858622 102 244 C101.34 244 100.68 244 100 244 C99.56300781 243.24074219 99.12601563 242.48148438 98.67578125 241.69921875 C95.43979011 236.48693465 89.40329729 234.07903144 83.9375 231.625 C76.71712518 230.08875004 69.58137407 230.45786512 63 234 C59.45725356 236.79847198 56.1976131 239.81573811 53 243 C53.27714844 244.134375 53.55429687 245.26875 53.83984375 246.4375 C54.20595709 247.95827848 54.57182963 249.47911495 54.9375 251 C55.11990234 251.74378906 55.30230469 252.48757813 55.49023438 253.25390625 C56.37255703 256.94361917 57.08540084 260.50368059 57.421875 264.28515625 C58.02835251 268.18218405 58.71272985 269.58164971 61.3125 272.4375 C69.40452969 282.04159273 70.98943559 292.48266443 70.27392578 304.72070312 C69.22629858 313.43785778 64.88980489 321.96976159 59.00390625 328.38671875 C57.77773975 329.98420394 57.77773975 329.98420394 58.2421875 332.09765625 C58.91739848 334.10866644 58.91739848 334.10866644 60.5625 335.75 C62.67065652 339.04972325 62.55269105 342.24319461 62 346 C60.75011855 348.87472735 59.74531416 350.44101438 57.25 352.3125 C52.70712727 353.7006 48.50934711 353.12733678 44 352 C43.01 352.33 42.02 352.66 41 353 C36.69948712 353.13652422 33.14902005 353.11704386 29 352 C28.34 352.33 27.68 352.66 27 353 C22.81855989 353.39447548 20.69053952 353.45035186 17.125 351.125 C14.88054301 348.88054301 14.04438978 347.98367762 13.90234375 344.8359375 C13.93489583 342.55729167 13.96744792 340.27864583 14 338 C12.23269531 338.24363281 12.23269531 338.24363281 10.4296875 338.4921875 C3.6733433 339.23995653 -3.08550282 339.1451071 -9.875 339.125 C-11.17308594 339.12886719 -12.47117187 339.13273437 -13.80859375 339.13671875 C-21.2629479 339.1291967 -28.59225173 338.84709599 -36 338 C-35.938125 339.216875 -35.87625 340.43375 -35.8125 341.6875 C-35.81942219 345.5985386 -36.45259982 347.90672835 -39 351 C-42.42402762 353.56802071 -45.84667386 353.22249961 -50 353 C-51.33542939 352.67516582 -52.66961551 352.3449145 -54 352 C-54.66 352.33 -55.32 352.66 -56 353 C-60.59403085 353.15062396 -64.50088058 352.92628929 -69 352 C-69.66 352.33 -70.32 352.66 -71 353 C-75.18144011 353.39447548 -77.30946048 353.45035186 -80.875 351.125 C-83.7756494 348.2243506 -84.17038423 346.61905798 -84.25 342.625 C-84.23096408 338.65283736 -83.53055645 337.08067741 -81 334 C-81.36842294 331.41263451 -81.36842294 331.41263451 -82 329 C-83.36318359 328.87044922 -83.36318359 328.87044922 -84.75390625 328.73828125 C-105.97177759 326.36623204 -124.99837197 318.12042402 -139.109375 301.62890625 C-145.79685334 292.32999526 -149.17105562 283.13189595 -149.0625 271.625 C-149.05347656 270.37976563 -149.04445313 269.13453125 -149.03515625 267.8515625 C-149.02355469 266.91054688 -149.01195312 265.96953125 -149 265 C-150.98 264.34 -152.96 263.68 -155 263 C-153.64076751 255.56617292 -147.63784007 250.17881378 -141.75 245.9375 C-137.46031746 243 -137.46031746 243 -134 243 C-131.43056454 251.48831358 -130.61441969 259.14593366 -131 268 C-133.31 268 -135.62 268 -138 268 C-137.7525 268.7734375 -137.7525 268.7734375 -137.5 269.5625 C-136.84951 272.73363876 -136.9379266 275.77218334 -137 279 C-136.278125 278.649375 -135.55625 278.29875 -134.8125 277.9375 C-131.56485639 276.85495213 -130.15649066 276.6709513 -127 278 C-125.9349985 279.96615661 -124.93166826 281.96726926 -124 284 C-123.01 284.33 -122.02 284.66 -121 285 C-119.35 283.02 -117.7 281.04 -116 279 C-112.64525899 279.59114379 -110.87172235 280.71225441 -108.375 283 C-105.87625688 285.27217224 -105.87625688 285.27217224 -103 287 C-102.93941406 286.08476563 -102.87882812 285.16953125 -102.81640625 284.2265625 C-102.73261719 283.03804687 -102.64882813 281.84953125 -102.5625 280.625 C-102.44068359 278.84996094 -102.44068359 278.84996094 -102.31640625 277.0390625 C-102 274 -102 274 -101 272 C-95.72 272.66 -90.44 273.32 -85 274 C-85.33 270.37 -85.66 266.74 -86 263 C-83 261 -83 261 -79 261 C-78.49161436 258.96040523 -77.99366114 256.91820862 -77.5 254.875 C-77.2215625 253.73804688 -76.943125 252.60109375 -76.65625 251.4296875 C-76.02057756 248.10754222 -75.6336554 245.36285559 -76 242 C-80.14936586 236.13525384 -87.19572126 232.7288732 -94 231 C-102.90996424 229.49538049 -109.50326899 232.27194805 -117 237 C-119.51483093 238.8861232 -121.72077384 240.82437503 -124 243 C-124.20753906 242.38253906 -124.41507812 241.76507812 -124.62890625 241.12890625 C-128.24882621 231.1779129 -133.14659545 224.51898848 -142.375 219.19140625 C-148.20713883 216.54437895 -153.81976024 215.58580638 -160.1875 215.5625 C-160.92347412 215.55863281 -161.65944824 215.55476562 -162.41772461 215.55078125 C-169.31528765 215.69471475 -174.93326605 217.72700288 -181 221 C-182.08234778 208.82358744 -174.94406942 197.98978239 -167.48828125 188.95703125 C-154.06497222 173.58725725 -137.36312115 162.45437372 -118 156 C-115.66700175 155.96045766 -113.33291811 155.95598268 -111 156 C-110.90203125 156.87140625 -110.8040625 157.7428125 -110.703125 158.640625 C-109.21716972 170.47702741 -107.13413832 180.94464601 -99 190 C-98.47535156 190.61617187 -97.95070313 191.23234375 -97.41015625 191.8671875 C-91.53416147 198.31004296 -83.35581819 202.9027468 -74.55078125 203.31640625 C-73.70322266 203.35830078 -72.85566406 203.40019531 -71.98242188 203.44335938 C-71.10134766 203.48267578 -70.22027344 203.52199219 -69.3125 203.5625 C-68.41982422 203.60568359 -67.52714844 203.64886719 -66.60742188 203.69335938 C-64.40509892 203.79935353 -62.20266527 203.90142051 -60 204 C-59.86722656 203.23300781 -59.73445313 202.46601562 -59.59765625 201.67578125 C-58.92250148 198.6530295 -57.69124172 196.5736287 -56 194 C-56.99128906 193.91105469 -57.98257813 193.82210937 -59.00390625 193.73046875 C-63.42129892 193.09401766 -67.0067339 191.35602762 -70.9375 189.3125 C-71.64116699 188.95309326 -72.34483398 188.59368652 -73.06982422 188.22338867 C-78.11549036 185.59175733 -82.65288319 182.68490245 -87 179 C-88.5159375 177.88625 -88.5159375 177.88625 -90.0625 176.75 C-96.33738838 171.41548999 -101.84478396 162.9677684 -104 155 C-104.29283536 151.30355361 -104.24879674 147.69739594 -104 144 C-104.60199219 143.88269531 -105.20398438 143.76539063 -105.82421875 143.64453125 C-109.19079377 142.6472514 -110.82201393 140.67581146 -113 138 C-112.79971917 135.49404722 -112.39687894 134.36914009 -110.546875 132.6484375 C-109.95390625 132.22820312 -109.3609375 131.80796875 -108.75 131.375 C-103.2947614 126.86741595 -100.41695927 121.4843499 -99.57275391 114.4296875 C-99.42762091 110.38429632 -99.3943825 106.35938555 -99.4375 102.3125 C-99.54788741 88.8244379 -98.71864598 75.8260226 -91.1875 64.125 C-88.4780379 59.38344133 -87.25518796 56.51589722 -88.3984375 51.1484375 C-88.69621094 50.08496094 -88.69621094 50.08496094 -89 49 C-91.79132428 37.55152504 -93.38106141 25.44091961 -87.38671875 14.8203125 C-85.01270801 11.70400544 -83.15273256 11.02329819 -79.3125 10.4375 C-74.74995021 10.61202376 -72.39029611 12.40759359 -69.1640625 15.51171875 C-64.67028301 20.67875402 -60.83407382 26.33531306 -57 32 C-56.09636719 31.84660156 -55.19273437 31.69320313 -54.26171875 31.53515625 C-52.43659463 31.23570475 -50.60718969 30.95528429 -48.76953125 30.74609375 C-46.62052163 30.40722796 -44.93628072 30.00496002 -43 29 C-41.40043227 25.7295878 -41.40043227 25.7295878 -40.76953125 23.30859375 C-39.8635388 20.5906164 -38.60000453 18.4149885 -37.0625 16 C-36.57910156 15.236875 -36.09570312 14.47375 -35.59765625 13.6875 C-34.80681641 12.8521875 -34.80681641 12.8521875 -34 12 C-32.68 12 -31.36 12 -30 12 C-28.02 15.465 -28.02 15.465 -26 19 C-25.2265625 17.9790625 -25.2265625 17.9790625 -24.4375 16.9375 C-18.65942411 9.97417777 -9.84399914 0 0 0 Z " fill="#222222" transform="translate(523,335)"/>
<path d="M0 0 C1.670625 0.4021875 1.670625 0.4021875 3.375 0.8125 C5.24933346 1.21147757 7.1244506 1.60677808 9 2 C10.14855469 2.26425781 11.29710937 2.52851562 12.48046875 2.80078125 C22.70320065 4.95346976 32.8412794 5.30016187 43.25 5.3125 C44.26176804 5.3176059 44.26176804 5.3176059 45.29397583 5.32281494 C57.76365105 5.35880465 69.74292213 4.25521236 81.6953125 0.5859375 C84 0 84 0 88 0 C89.11383092 3.97796755 90.10123589 7.96797537 91 12 C91.18175781 12.75796875 91.36351562 13.5159375 91.55078125 14.296875 C91.8125 16.25 91.8125 16.25 91 20 C85.27398342 26.68035268 78.46089265 29.4996017 70 31 C69.03320312 31.20238281 68.06640625 31.40476562 67.0703125 31.61328125 C51.17326257 34.47008607 33.80348538 34.25917577 18 31 C17.15179688 30.91363281 16.30359375 30.82726562 15.4296875 30.73828125 C7.61224365 29.79479665 1.18281524 25.85300686 -4 20 C-4.96232864 16.29738189 -4.17295171 13.57858877 -3 10 C-2.7421875 9.05769531 -2.484375 8.11539063 -2.21875 7.14453125 C-1.53979056 4.73762002 -0.80125062 2.36847666 0 0 Z " fill="#F8F8F7" transform="translate(468,583)"/>
<path d="M0 0 C0.73758545 0.14147461 1.4751709 0.28294922 2.23510742 0.42871094 C10.90478134 1.94226297 19.27388961 2.31023168 28.05541992 2.26074219 C30.2995943 2.25006142 32.5429597 2.26068247 34.78710938 2.2734375 C44.66291434 2.28153873 54.23483785 1.45454447 64 0 C61.125 9.75 61.125 9.75 60 12 C59.84733388 13.73868744 59.75067404 15.48247501 59.68359375 17.2265625 C59.62075195 18.7734375 59.62075195 18.7734375 59.55664062 20.3515625 C59.51732422 21.43179688 59.47800781 22.51203125 59.4375 23.625 C59.37272461 25.25695312 59.37272461 25.25695312 59.30664062 26.921875 C59.2003547 29.6144517 59.09831943 32.30712253 59 35 C41.79089617 39.27365771 25.25990426 41.39836317 8 36 C7.01 35.34 6.02 34.68 5 34 C4.63110352 32.01977539 4.63110352 32.01977539 4.62890625 29.59765625 C4.60654907 28.26891479 4.60654907 28.26891479 4.58374023 26.91333008 C4.57673096 25.97255615 4.56972168 25.03178223 4.5625 24.0625 C4.36477032 15.93491459 3.36608049 9.46800184 0 2 C0 1.34 0 0.68 0 0 Z " fill="#F9F9F8" transform="translate(480,619)"/>
<path d="M0 0 C8.04768506 0.81840865 8.04768506 0.81840865 11.68359375 1.51171875 C30.71675872 5.07569785 50.02507889 2.84283584 69 0 C72.41755152 7.26199321 75.07765075 14.20942674 77 22 C73.50151403 22.81911146 70.00096838 23.62907028 66.5 24.4375 C65.51773438 24.66759766 64.53546875 24.89769531 63.5234375 25.13476562 C41.19779658 30.26966304 14.10586983 30.98096012 -7 21 C-6.26951699 16.31196344 -4.63363115 12.09114445 -2.9375 7.6875 C-2.51500977 6.57665039 -2.51500977 6.57665039 -2.08398438 5.44335938 C-1.39281425 3.62757345 -0.69688311 1.81360101 0 0 Z " fill="#F7F7F7" transform="translate(477,555)"/>
<path d="M0 0 C6.71441361 0.94001791 6.71441361 0.94001791 9.4921875 1.5234375 C14.6599898 2.225522 19.79038726 2.19059199 25 2.1875 C26.11109131 2.18814453 27.22218262 2.18878906 28.36694336 2.18945312 C36.41056343 2.13783506 44.09670185 1.58348729 52 0 C52.86580287 1.93232821 53.71729941 3.87107194 54.5625 5.8125 C55.03816406 6.89144531 55.51382813 7.97039063 56.00390625 9.08203125 C57 12 57 12 56 15 C47.03270646 16.68196619 38.27992941 17.31733051 29.17138672 17.26074219 C27.13348406 17.25004454 25.09646959 17.26069771 23.05859375 17.2734375 C13.8675872 17.28172441 5.07272308 16.43296472 -4 15 C-5.25819833 10.91563583 -4.44166926 9.10000531 -2.5625 5.25 C-2.08941406 4.26515625 -1.61632812 3.2803125 -1.12890625 2.265625 C-0.75636719 1.51796875 -0.38382812 0.7703125 0 0 Z " fill="#F6F6F5" transform="translate(486,535)"/>
<path d="M0 0 C3.49761036 2.25401556 5.45112532 4.1653411 7 8 C7.92924245 15.05575952 7.3517826 20.31850604 3 26 C0.52616279 27.96200882 -1.21083552 28.03123489 -4.375 28.5 C-8.69078121 27.90471983 -9.97699501 26.70138241 -12.8359375 23.60546875 C-16.21245474 18.9485943 -15.76558428 12.44337446 -15 7 C-11.28608002 0.24637936 -7.51528227 -1.65590965 0 0 Z " fill="#F1F1F0" transform="translate(460,445)"/>
<path d="M0 0 C3.75212407 0.97153212 5.5561677 2.73772403 8.1875 5.56640625 C9.89718538 10.69546238 10.19856648 16.60654841 8.43359375 21.7734375 C7.09017803 24.27587855 5.60340366 26.23655162 3.375 28.00390625 C0.09025036 28.84855616 -2.43181445 28.98157816 -5.8125 28.56640625 C-9.96446894 25.2448311 -12.44452332 22.07501653 -13.21875 16.796875 C-13.37605421 11.6910424 -13.49955898 7.5488421 -10.375 3.31640625 C-7.18245186 0.23706904 -4.36008977 -0.34615578 0 0 Z " fill="#F4F4F3" transform="translate(569.8125,444.43359375)"/>
<path d="M0 0 C3.14581423 -0.02888514 6.29159469 -0.04675923 9.4375 -0.0625 C10.33533203 -0.07087891 11.23316406 -0.07925781 12.15820312 -0.08789062 C13.01220703 -0.09111328 13.86621094 -0.09433594 14.74609375 -0.09765625 C15.93223267 -0.10551147 15.93223267 -0.10551147 17.14233398 -0.11352539 C19 0 19 0 20 1 C19.71567735 6.68645302 19.16799934 9.83200066 15 14 C12.14675563 15.42662219 10.16545451 15.31033868 7 15 C3.08847278 12.59974466 1.1644219 10.44597451 0 6 C-0.02715799 4.0001844 -0.03029955 1.99977047 0 0 Z " fill="#292928" transform="translate(446,456)"/>
<path d="M0 0 C6.27 0 12.54 0 19 0 C17.86037736 10.25660377 17.86037736 10.25660377 14 14 C11.14675563 15.42662219 9.16545451 15.31033868 6 15 C3.30009338 13.20006226 1.4581135 11.916227 0 9 C0 6.03 0 3.06 0 0 Z " fill="#272727" transform="translate(559,456)"/>
<path d="M0 0 C0.33 0 0.66 0 1 0 C1.01417969 0.59167969 1.02835938 1.18335938 1.04296875 1.79296875 C1.30290317 6.09944984 1.62510804 8.47515126 4.1875 12.0625 C6.8633476 14.17364978 6.8633476 14.17364978 10 14.625 C13.98607969 13.79456673 15.46255435 12.11743323 18 9 C18.33 8.01 18.66 7.02 19 6 C19.66 6 20.32 6 21 6 C19.79271637 10.42670664 18.52441688 13.02627326 15 16 C11.86128812 17.56935594 9.46144178 17.35201103 6 17 C2.38629602 14.18934135 0.06730243 11.4826702 -1 7 C-0.625 3.1875 -0.625 3.1875 0 0 Z " fill="#C2C2C1" transform="translate(558,456)"/>
<path d="M0 0 C0.66 0 1.32 0 2 0 C2.433125 0.94875 2.86625 1.8975 3.3125 2.875 C4.79302201 6.20041937 4.79302201 6.20041937 8 8 C10.9149255 8.5838196 10.9149255 8.5838196 14 8 C17.10164769 5.44975635 18.72566416 3.82300753 20 0 C20.66 0 21.32 0 22 0 C20.79271637 4.42670664 19.52441688 7.02627326 16 10 C12.80949146 11.59525427 10.52502026 11.41125236 7 11 C3.4809118 8.66958159 1.35399741 6.16313433 0.125 2.125 C0.08375 1.42375 0.0425 0.7225 0 0 Z " fill="#D1D1D0" transform="translate(445,462)"/>
<path d="M0 0 C1.98 0.495 1.98 0.495 4 1 C3.67 2.65 3.34 4.3 3 6 C1.68 5.67 0.36 5.34 -1 5 C-0.67 3.35 -0.34 1.7 0 0 Z " fill="#E3E3E1" transform="translate(522,482)"/>
<path d="M0 0 C1.32 0.66 2.64 1.32 4 2 C3.67 3.32 3.34 4.64 3 6 C1.68 5.67 0.36 5.34 -1 5 C-1 1 -1 1 0 0 Z " fill="#E2E2DF" transform="translate(499,482)"/>
<path d="M0 0 C0.66 0 1.32 0 2 0 C0.94124926 3.40312738 -0.00902154 6.01353231 -2 9 C-3.32 8.67 -4.64 8.34 -6 8 C-5.195625 7.236875 -4.39125 6.47375 -3.5625 5.6875 C-0.83200976 3.20569102 -0.83200976 3.20569102 0 0 Z " fill="#CACAC8" transform="translate(577,462)"/>
<path d="M0 0 C1.98 0.495 1.98 0.495 4 1 C3.34 2.32 2.68 3.64 2 5 C1.01 5 0.02 5 -1 5 C-0.67 3.35 -0.34 1.7 0 0 Z " fill="#272828" transform="translate(438,597)"/>
</svg>
